<?xml version="1.0" encoding="utf-8"?>
<!-- Generator: Adobe Illustrator 25.0.1, SVG Export Plug-In . SVG Version: 6.00 Build 0)  -->
<svg version="1.1" id="Layer_1" xmlns="http://www.w3.org/2000/svg" xmlns:xlink="http://www.w3.org/1999/xlink" x="0px" y="0px"
	 viewBox="0 0 100 100" style="enable-background:new 0 0 100 100;" xml:space="preserve">
<style type="text/css">
	.st0{fill:#FFC83B;}
	.st1{fill:#FFFFFF;}
</style>
<rect x="0" y="0" class="st0" width="100" height="100"/>
<path class="st1" d="M40.2,25c0-1,0.8-1.8,1.8-1.8h11.5L51,20.7c-0.7-0.7-0.7-1.9,0-2.6c0.7-0.7,1.9-0.7,2.6,0l5.6,5.6
	c0.4,0.4,0.5,0.8,0.5,1.3c0,0.5-0.2,0.9-0.5,1.3l-5.6,5.6c-0.7,0.7-1.9,0.7-2.6,0c-0.7-0.7-0.7-1.9,0-2.6l2.5-2.5H42.1
	C41.1,26.8,40.2,26,40.2,25z M64,26.2c0-5.4,4.4-9.8,9.8-9.8c5.4,0,9.8,4.4,9.8,9.8c0,5.4-4.4,9.8-9.8,9.8C68.4,36,64,31.6,64,26.2z
	 M67.7,26.2c0,3.4,2.7,6.1,6.1,6.1s6.1-2.7,6.1-6.1s-2.7-6.1-6.1-6.1S67.7,22.8,67.7,26.2z M16.4,26.2c0-5.4,4.4-9.8,9.8-9.8
	c5.4,0,9.8,4.4,9.8,9.8c0,5.4-4.4,9.8-9.8,9.8C20.8,36,16.4,31.6,16.4,26.2z M20.1,26.2c0,3.4,2.7,6.1,6.1,6.1
	c3.4,0,6.1-2.7,6.1-6.1s-2.7-6.1-6.1-6.1C22.8,20.1,20.1,22.8,20.1,26.2z M73.8,40.2c-1,0-1.8,0.8-1.8,1.8v11.5L69.5,51
	c-0.7-0.7-1.9-0.7-2.6,0c-0.7,0.7-0.7,1.9,0,2.6l5.6,5.6c0.4,0.4,0.8,0.5,1.3,0.5s0.9-0.2,1.3-0.5l5.6-5.6c0.7-0.7,0.7-1.9,0-2.6
	c-0.7-0.7-1.9-0.7-2.6,0l-2.5,2.5V42.1C75.6,41.1,74.8,40.2,73.8,40.2z M36,73.8c0,5.4-4.4,9.8-9.8,9.8c-5.4,0-9.8-4.4-9.8-9.8
	c0-5.4,4.4-9.8,9.8-9.8C31.6,64,36,68.4,36,73.8z M32.3,73.8c0-3.4-2.7-6.1-6.1-6.1c-3.4,0-6.1,2.7-6.1,6.1c0,3.4,2.7,6.1,6.1,6.1
	C29.6,79.9,32.3,77.2,32.3,73.8z M73.9,70.9H72v5.6h1.9c1.8,0,3-1.1,3-2.8C76.9,72,75.7,70.9,73.9,70.9z M83.6,73.8
	c0,5.4-4.4,9.8-9.8,9.8c-5.4,0-9.8-4.4-9.8-9.8c0-5.4,4.4-9.8,9.8-9.8C79.2,64,83.6,68.4,83.6,73.8z M79,73.7c0-2.7-2-4.5-5-4.5
	h-4.1v9.1H74C77,78.3,79,76.5,79,73.7z M64.4,62.6v-7.9c0-1-0.8-1.8-1.8-1.8c-1,0-1.8,0.8-1.8,1.8v3.5l-22.1-22
	c-0.7-0.7-1.9-0.7-2.6,0c-0.7,0.7-0.7,1.9,0,2.6l22.1,22h-3.5c-1,0-1.8,0.8-1.8,1.8c0,1,0.8,1.8,1.8,1.8h7.9c0.2,0,0.5,0,0.7-0.1
	c0.4-0.2,0.8-0.5,1-1C64.4,63.1,64.4,62.8,64.4,62.6z M26.2,59.8c1,0,1.8-0.8,1.8-1.8V46.5l2.5,2.5c0.7,0.7,1.9,0.7,2.6,0
	c0.7-0.7,0.7-1.9,0-2.6l-5.6-5.6c-0.4-0.4-0.8-0.5-1.3-0.5c-0.5,0-0.9,0.2-1.3,0.5l-5.6,5.6c-0.7,0.7-0.7,1.9,0,2.6
	c0.7,0.7,1.9,0.7,2.6,0l2.5-2.5v11.5C24.4,58.9,25.2,59.8,26.2,59.8z"/>
</svg>
